<?xml version="1.0" standalone="no"?><!DOCTYPE svg PUBLIC "-//W3C//DTD SVG 1.1//EN" "http://www.w3.org/Graphics/SVG/1.1/DTD/svg11.dtd"><svg t="1691399026718" class="icon" viewBox="0 0 1088 1024" version="1.1" xmlns="http://www.w3.org/2000/svg" p-id="3473" xmlns:xlink="http://www.w3.org/1999/xlink" width="212.5" height="200"><path d="M576 0a511.68 511.68 0 0 0-448 264.32V160a32 32 0 0 0-32-32h-64a32 32 0 0 0-32 32v320a32 32 0 0 0 32 32h320a32 32 0 0 0 32-32v-64a32 32 0 0 0-32-32H214.336A383.744 383.744 0 0 1 960 512a384 384 0 0 1-384 384c-166.976 0-307.584-107.2-360.512-256H80.768c56.896 220.736 256.704 384 495.232 384A512 512 0 0 0 576 0z" fill="#000000" p-id="3474"></path></svg>